<svg xmlns="http://www.w3.org/2000/svg" version="1.1" xmlns:xlink="http://www.w3.org/1999/xlink" xmlns:svgjs="http://svgjs.dev/svgjs" width="2000" height="1500" viewBox="0 0 2000 1500"><rect width="2000" height="1500" fill="#000000"></rect><g transform="matrix(0.3907776475185619,0,0,0.3907776475185619,609.4279050812006,250.40485829959516)"><svg viewBox="0 0 193 247" data-background-color="#000000" preserveAspectRatio="xMidYMid meet" height="2559" width="2000" xmlns="http://www.w3.org/2000/svg" xmlns:xlink="http://www.w3.org/1999/xlink"><g id="tight-bounds" transform="matrix(1,0,0,1,-0.05075987841945562,-0.09999999999999432)"><svg viewBox="0 0 193.1015197568389 247.2" height="247.2" width="193.1015197568389"><g><svg viewBox="0 0 193.1015197568389 247.2" height="247.2" width="193.1015197568389"><g><svg viewBox="0 0 193.1015197568389 247.2" height="247.2" width="193.1015197568389"><g id="textblocktransform"><svg viewBox="0 0 193.1015197568389 247.2" height="247.2" width="193.1015197568389" id="textblock"><g><svg viewBox="0 0 193.1015197568389 247.2" height="247.2" width="193.1015197568389"><g transform="matrix(1,0,0,1,0,0)"><svg width="193.1015197568389" viewBox="4.58 -33.27 25.979999999999997 33.27" height="247.2" data-palette-color="url(#9ad43ec5-1f4a-4719-83c6-790604b872b8)"><g class="wordmark-text-0" data-fill-palette-color="primary" id="text-0"></g></svg></g></svg></g></svg></g></svg></g></svg></g><defs></defs><mask id="52812f70-70e7-4e16-a140-1ec8f2754667"><g id="SvgjsG2001"><svg viewBox="0 0 193.1015197568389 247.2" height="247.2" width="193.1015197568389"><g><svg viewBox="0 0 193.1015197568389 247.2" height="247.2" width="193.1015197568389"><g><svg viewBox="0 0 193.1015197568389 247.2" height="247.2" width="193.1015197568389"><g id="SvgjsG2000"><svg viewBox="0 0 193.1015197568389 247.2" height="247.2" width="193.1015197568389" id="SvgjsSvg1999"><g><svg viewBox="0 0 193.1015197568389 247.2" height="247.2" width="193.1015197568389"><g transform="matrix(1,0,0,1,0,0)"><svg width="193.1015197568389" viewBox="4.58 -33.27 25.979999999999997 33.27" height="247.2" data-palette-color="url(#9ad43ec5-1f4a-4719-83c6-790604b872b8)"><g class="wordmark-text-0" data-fill-palette-color="primary" id="SvgjsG1998"><path d="M26.95-14.18L26.95-33.27 30.56-33.27 30.56 0 26.14 0 7.96-27.91 7.79-27.91Q8.14-22.83 8.14-18.91L8.14-18.91 8.14 0 4.58 0 4.58-33.27 8.95-33.27 27.07-5.46 27.25-5.46Q26.87-12.01 26.95-14.18L26.95-14.18Z" fill="white"></path></g></svg></g></svg></g></svg></g></svg></g></svg></g><defs><mask></mask></defs></svg><rect width="193.1015197568389" height="247.2" fill="black" stroke="none" visibility="hidden"></rect></g></mask><linearGradient x1="0" x2="1" y1="0.5" y2="0.5" id="9ad43ec5-1f4a-4719-83c6-790604b872b8"><stop stop-color="#f00b51" offset="0"></stop><stop stop-color="#730062" offset="1"></stop></linearGradient><rect width="193.1015197568389" height="247.2" fill="url(#9ad43ec5-1f4a-4719-83c6-790604b872b8)" mask="url(#52812f70-70e7-4e16-a140-1ec8f2754667)" data-fill-palette-color="primary"></rect></svg><rect width="193.1015197568389" height="247.2" fill="none" stroke="none" visibility="hidden"></rect></g></svg></g></svg>